<svg width="26" height="22" viewBox="0 0 26 22" fill="none" xmlns="http://www.w3.org/2000/svg">
<path d="M25.876 16.4464L25.3455 10.278C25.2575 9.26413 24.9586 8.27978 24.4681 7.38804C23.9777 6.4963 23.3063 5.71682 22.4972 5.09953L17.7475 1.48239C17.7463 1.48152 17.745 1.48111 17.7438 1.48024C16.6966 0.648259 15.4108 0.172851 14.0742 0.123438C14.0392 0.115285 14.0028 0.114276 13.9674 0.12047C13.9205 0.119436 13.8739 0.116568 13.8267 0.116568H12.1712C12.1242 0.116568 12.0776 0.119436 12.0307 0.12047C11.9952 0.114276 11.9589 0.115285 11.9238 0.123438C10.5871 0.172868 9.30122 0.648358 8.25392 1.48047C8.25284 1.48128 8.25152 1.48159 8.25045 1.48242L3.50073 5.09953C2.69158 5.71682 2.02026 6.4963 1.52978 7.38804C1.0393 8.27978 0.740465 9.26413 0.652415 10.278L0.121886 16.4464C0.0675585 17.0863 0.146428 17.7305 0.35352 18.3384C0.560611 18.9462 0.891431 19.5046 1.32511 19.9782C3.10129 21.9135 6.23208 21.958 8.06269 20.0771C8.16047 19.9766 8.25131 19.8715 8.33861 19.7641C8.63418 20.0103 8.97824 20.1916 9.34843 20.2961C9.71863 20.4006 10.1067 20.4261 10.4874 20.3709L12.999 20.0061L15.5105 20.3708C15.8912 20.4249 16.279 20.3989 16.6491 20.2945C17.0191 20.19 17.3633 20.0095 17.6596 19.7645C17.7461 19.8722 17.8377 19.9768 17.9354 20.0772C19.7661 21.9579 22.8966 21.9135 24.6728 19.9782C25.1065 19.5046 25.4373 18.9462 25.6444 18.3383C25.8515 17.7305 25.9304 17.0863 25.876 16.4464ZM7.41769 19.4494C5.94008 20.9675 3.41996 20.9297 1.98824 19.3696C1.63619 18.9897 1.36794 18.54 1.20089 18.0497C1.03384 17.5593 0.971735 17.0394 1.01859 16.5235L1.54912 10.3551C1.62628 9.46631 1.88824 8.6034 2.31821 7.82168C2.74819 7.03996 3.33671 6.35668 4.04607 5.81559L6.31372 4.08859C5.85555 5.23487 5.74529 6.49073 5.99669 7.69931L6.94701 12.293C7.21072 13.5692 7.34375 14.8689 7.34406 16.172V17.6513C7.3442 18.1506 7.48048 18.6404 7.73823 19.068C7.64009 19.2022 7.533 19.3296 7.41769 19.4494ZM7.82835 12.1106L6.87804 7.51693C6.72616 6.78291 6.72862 6.02532 6.88525 5.2923C7.04188 4.55927 7.34927 3.86684 7.78787 3.25899C8.22648 2.65114 8.78672 2.14117 9.433 1.76146C10.0793 1.38176 10.7975 1.14062 11.542 1.05338V5.41038V9.76737C11.5406 10.3992 11.3595 11.0175 11.0198 11.5502C10.6801 12.0829 10.1959 12.508 9.62363 12.7758L8.064 13.5014C8.00136 13.035 7.92281 12.5714 7.82835 12.1106ZM17.7538 16.172V17.6513C17.7539 17.9164 17.6968 18.1785 17.5866 18.4197C17.4763 18.6608 17.3155 18.8755 17.115 19.049C16.9144 19.2225 16.6789 19.3508 16.4244 19.4252C16.1699 19.4996 15.9024 19.5184 15.64 19.4803L13.0636 19.1061C13.0207 19.0998 12.9771 19.0998 12.9342 19.1061L10.3579 19.4803C10.0955 19.5184 9.82798 19.4996 9.57347 19.4252C9.31896 19.3508 9.08345 19.2225 8.88292 19.049C8.6824 18.8755 8.52156 18.6608 8.41132 18.4197C8.30109 18.1785 8.24404 17.9164 8.24406 17.6513V16.172C8.24406 15.5965 8.21754 15.0202 8.16784 14.4458L10.0033 13.5918C10.7307 13.2514 11.3463 12.711 11.7781 12.0338C12.2099 11.3566 12.4402 10.5705 12.4419 9.76737V1.01654H13.5561V9.76737C13.5578 10.5705 13.788 11.3566 14.2198 12.0338C14.6516 12.711 15.2672 13.2514 15.9946 13.5918L17.83 14.4458C17.7804 15.0202 17.7538 15.5965 17.7538 16.172ZM17.9339 13.5014L16.3743 12.7758C15.8021 12.508 15.3179 12.0829 14.9782 11.5502C14.6385 11.0175 14.4574 10.3992 14.4561 9.76738V1.05338C15.2005 1.14065 15.9187 1.38181 16.565 1.76152C17.2112 2.14124 17.7715 2.65121 18.2101 3.25905C18.6487 3.86689 18.9561 4.55931 19.1127 5.29232C19.2694 6.02533 19.2718 6.78291 19.12 7.51693L18.1696 12.1106C18.0744 12.5708 17.9958 13.0344 17.9339 13.5014ZM24.0097 19.3697C22.578 20.9297 20.0579 20.9675 18.5803 19.4494C18.4647 19.3302 18.3573 19.2032 18.2588 19.0694C18.5171 18.6415 18.6537 18.1511 18.6538 17.6513V16.172C18.6541 14.8689 18.7872 13.5692 19.0509 12.293L20.0013 7.69934C20.2527 6.49078 20.1424 5.23496 19.6843 4.0887L21.9518 5.81558C22.6612 6.35667 23.2497 7.03995 23.6797 7.82167C24.1097 8.60339 24.3716 9.4663 24.4488 10.3551L24.9793 16.5235C25.0262 17.0394 24.9641 17.5593 24.797 18.0496C24.63 18.54 24.3617 18.9897 24.0097 19.3697Z" fill="#920819"/>
<path d="M14.0688 14.5275H11.9291C11.2845 14.5275 10.9088 15.2941 11.3071 15.8035L12.3769 17.1715L12.377 17.1716C12.4518 17.2647 12.5465 17.3398 12.6541 17.3915C12.7618 17.4431 12.8796 17.4699 12.999 17.4699C13.1184 17.4699 13.2363 17.443 13.344 17.3914C13.4516 17.3397 13.5463 17.2646 13.621 17.1715L14.6907 15.8036C15.0888 15.2945 14.714 14.5275 14.0688 14.5275Z" fill="#920819"/>
<path d="M10.6862 9.99997V9.25142C10.6862 8.96946 10.5742 8.69905 10.3748 8.49968C10.1754 8.3003 9.90502 8.18829 9.62306 8.18829C9.3411 8.18829 9.07069 8.3003 8.87132 8.49968C8.67194 8.69905 8.55994 8.96946 8.55994 9.25142V9.99997C8.55994 10.2819 8.67194 10.5523 8.87132 10.7517C9.07069 10.9511 9.3411 11.0631 9.62306 11.0631C9.90502 11.0631 10.1754 10.9511 10.3748 10.7517C10.5742 10.5523 10.6862 10.2819 10.6862 9.99997V9.99997Z" fill="#920819"/>
<path d="M16.3748 8.18829C16.0929 8.18862 15.8227 8.30074 15.6234 8.50004C15.4241 8.69934 15.312 8.96956 15.3116 9.25142V9.99997C15.3116 10.2819 15.4237 10.5523 15.623 10.7517C15.8224 10.9511 16.0928 11.0631 16.3748 11.0631C16.6567 11.0631 16.9271 10.9511 17.1265 10.7517C17.3259 10.5523 17.4379 10.2819 17.4379 9.99997V9.25142C17.4376 8.96956 17.3255 8.69934 17.1262 8.50004C16.9268 8.30074 16.6566 8.18862 16.3748 8.18829V8.18829Z" fill="#920819"/>
</svg>
