<svg width="31" height="30" viewBox="0 0 31 30" fill="none" xmlns="http://www.w3.org/2000/svg">
<path d="M10.3333 23.75C5.16659 23.75 2.58325 22.5 2.58325 16.25V10C2.58325 5 5.16659 2.5 10.3333 2.5H20.6666C25.8333 2.5 28.4166 5 28.4166 10V16.25C28.4166 21.25 25.8333 23.75 20.6666 23.75H20.0208C19.6203 23.75 19.2328 23.9375 18.9874 24.25L17.0499 26.75C16.1974 27.85 14.8024 27.85 13.9499 26.75L12.0124 24.25C11.8058 23.975 11.3278 23.75 10.9791 23.75H10.3333Z" stroke="#828282" stroke-width="1.5" stroke-linecap="round" stroke-linejoin="round"/>
<path d="M9.04175 10H21.9584" stroke="#828282" stroke-width="1.5" stroke-linecap="round" stroke-linejoin="round"/>
<path d="M9.04175 16.25H16.7917" stroke="#828282" stroke-width="1.5" stroke-linecap="round" stroke-linejoin="round"/>
</svg>
