<svg width="32" height="28" viewBox="0 0 32 28" fill="none" xmlns="http://www.w3.org/2000/svg">
<path d="M8.02654 10.3949V13.7666C8.02654 14.4782 7.67987 15.5632 7.26654 16.1699L5.73321 18.3982C4.78654 19.7749 5.43987 21.3032 7.17321 21.8166C12.9199 23.4966 19.1199 23.4966 24.8665 21.8166C26.4799 21.3499 27.1865 19.6816 26.3065 18.3982L24.7732 16.1699C24.3732 15.5632 24.0265 14.4782 24.0265 13.7666V10.3949C24.0265 6.5449 20.4265 3.3949 16.0265 3.3949C11.6132 3.3949 8.02654 6.53323 8.02654 10.3949Z" stroke="#828282" stroke-width="1.5" stroke-linecap="round"/>
<path d="M17.2134 3.49994C15.9334 3.35994 14.7067 3.44161 13.5601 3.73327C13.9467 2.86994 14.9067 2.26328 16.0267 2.26328C17.1467 2.26328 18.1067 2.86994 18.4934 3.73327C18.0801 3.62827 17.6534 3.54661 17.2134 3.49994Z" stroke="#828282" stroke-width="1.5" stroke-linecap="round" stroke-linejoin="round"/>
<path d="M20.0266 22.2367C20.0266 24.1617 18.2266 25.7367 16.0266 25.7367C14.9333 25.7367 13.9199 25.3401 13.1999 24.7101C12.4799 24.0801 12.0266 23.1934 12.0266 22.2367" stroke="#828282" stroke-width="1.5"/>
</svg>
