<svg width="19" height="19" viewBox="0 0 19 19" fill="none" xmlns="http://www.w3.org/2000/svg">
<path d="M17.71 16.7909L14.31 13.3678C15.407 11.9566 16.0022 10.2139 16 8.41993C16 6.82222 15.5308 5.2604 14.6518 3.93196C13.7727 2.60352 12.5233 1.56813 11.0615 0.956711C9.59966 0.345297 7.99113 0.185323 6.43928 0.497019C4.88743 0.808716 3.46197 1.57808 2.34315 2.70783C1.22433 3.83757 0.462403 5.27696 0.153721 6.84396C-0.15496 8.41096 0.00346625 10.0352 0.608967 11.5113C1.21447 12.9874 2.23985 14.249 3.55544 15.1366C4.87103 16.0243 6.41775 16.4981 8 16.4981C9.77666 16.5003 11.5025 15.8992 12.9 14.7915L16.29 18.2247C16.383 18.3194 16.4936 18.3945 16.6154 18.4458C16.7373 18.497 16.868 18.5234 17 18.5234C17.132 18.5234 17.2627 18.497 17.3846 18.4458C17.5064 18.3945 17.617 18.3194 17.71 18.2247C17.8037 18.1309 17.8781 18.0192 17.9289 17.8961C17.9797 17.7731 18.0058 17.6411 18.0058 17.5078C18.0058 17.3745 17.9797 17.2425 17.9289 17.1195C17.8781 16.9964 17.8037 16.8848 17.71 16.7909ZM2 8.41993C2 7.22165 2.3519 6.05028 3.01119 5.05395C3.67047 4.05762 4.60755 3.28108 5.7039 2.82251C6.80026 2.36395 8.00666 2.24397 9.17055 2.47775C10.3344 2.71152 11.4035 3.28854 12.2426 4.13585C13.0818 4.98316 13.6532 6.0627 13.8847 7.23795C14.1162 8.41321 13.9974 9.63139 13.5433 10.7384C13.0892 11.8455 12.3201 12.7917 11.3334 13.4575C10.3467 14.1232 9.18669 14.4785 8 14.4785C6.4087 14.4785 4.88258 13.8402 3.75736 12.704C2.63214 11.5678 2 10.0268 2 8.41993Z" fill="#087592"/>
</svg>
